<?xml version="1.0" encoding="utf-8"?>
<!-- Generator: Adobe Illustrator 22.1.0, SVG Export Plug-In . SVG Version: 6.00 Build 0)  -->
<svg version="1.1" id="Capa_1" xmlns="http://www.w3.org/2000/svg" xmlns:xlink="http://www.w3.org/1999/xlink" x="0px" y="0px"
	 viewBox="0 0 560.5 560.5" style="enable-background:new 0 0 560.5 560.5;" xml:space="preserve">
<style type="text/css">
	.st0{clip-path:url(#SVGID_2_);fill:url(#SVGID_3_);stroke:#575756;stroke-width:0.9257;stroke-miterlimit:10;}
</style>
<g>
	<g>
		<defs>
			<path id="SVGID_1_" d="M79.9,89.8c0-5.5,4.5-10,10-10c5.5,0,10,4.5,10,10s-4.5,10-10,10C84.4,99.8,79.9,95.4,79.9,89.8z
				 M560.1,146.8C560.1,146.8,560.1,146.8,560.1,146.8c0-6.6-3.2-12.4-8.1-16c-3.3-2.5-7.5-4-12-4c-11.1,0-20,9-20,20c0,0,0,0,0,0
				v16.7v0.2v0.2c-0.1,2.6-1.1,4.9-2.8,6.7c-1.8,1.9-4.4,3.1-7.2,3.1c-5.5,0-10-4.5-10-10v1.3c0-10.6-8.2-19.2-18.6-19.9
				c-0.5,0-0.9-0.1-1.4-0.1c-11.1,0-20,9-20,20c0,0,0,0,0,0v61.6c0,0,0,0,0,0v53v20.2c0,33.1-26.8,59.9-59.9,59.9v0.1
				c-37.3,0-68.7-25.5-77.5-60.1c-1.3-5-2.1-10.1-2.4-15.4v-4.7v-4.5V155c0-4.5-0.8-8.8-2.1-12.9c-4.9-14.4-17.8-25.1-33.3-26.9
				c-0.2,0-0.5-0.1-0.7-0.1c-0.4,0-0.9-0.1-1.3-0.1c-0.7-0.1-1.5-0.1-2.3-0.1c-0.1,0-0.2,0-0.3,0c0,0-0.1,0-0.1,0c0,0-0.1,0-0.1,0
				c-0.1,0-0.2,0-0.3,0c-0.8,0-1.5,0-2.3,0.1c-0.4,0-0.9,0.1-1.3,0.1c-0.2,0-0.5,0.1-0.7,0.1c-15.6,1.8-28.5,12.5-33.4,26.9
				c-1.4,4-2.1,8.3-2.1,12.8c0,0,0,0.1,0,0.1h0v123.2c0-1.1,0-2.1-0.1-3.2v4.5v4.7c-0.3,5.3-1.1,10.5-2.4,15.4
				c-8.9,34.5-40.2,60.1-77.5,60.1v-0.1c-33.1,0-59.9-26.8-59.9-59.9v-20.2v-53V135c0-1.3-0.2-2.4-0.7-3.6c-1.4-3.8-5.1-6.5-9.3-6.5
				c-5.5,0-10,4.5-10,10v5.9l-0.1,16.4V195c0,5.5-4.5,10-10,10c-5.5,0-10-4.5-10-10v-5.3V155v-0.4c0,0,0,0,0,0
				c-0.2-16.4-13.6-29.7-30-29.7c-14.7,0-26.9,10.6-29.5,24.6c-0.3,1.8-0.5,3.6-0.5,5.5v124.5v0.1c0,2.2,0.1,4.3,0.1,6.4
				c1.1,28.2,9.5,54.6,23.4,77.2c4.8,7.9,10.3,15.3,16.4,22.2c4.5,5.1,9.2,9.8,14.3,14.3c6.9,6.1,14.4,11.6,22.3,16.5
				c22.6,13.9,49,22.3,77.2,23.4c2.1,0.1,4.3,0.1,6.4,0.1c2.2,0,4.3-0.1,6.4-0.1c28.2-1.1,54.5-9.5,77.1-23.3
				c8-4.9,15.4-10.4,22.4-16.6c5-4.4,9.7-9.1,14.1-14c0-0.1,0.1-0.1,0.1-0.2c4.4,5,9.2,9.8,14.2,14.2c6.9,6.1,14.4,11.6,22.3,16.5
				c22.6,13.9,49,22.3,77.2,23.4c2.1,0.1,4.3,0.1,6.4,0.1c2.2,0,4.3-0.1,6.4-0.1c28.2-1.1,54.5-9.5,77.1-23.3
				c8-4.9,15.4-10.4,22.4-16.6c5-4.4,9.7-9.1,14.1-14c6.2-7,11.7-14.4,16.6-22.4c11.6-19,19.5-40.5,22.3-63.7
				c0.5-4.4,0.9-8.8,1.1-13.3c0-0.1,0-0.2,0-0.3c0.1-2.1,0.1-4.3,0.1-6.5c0-2.3-0.1-4.5-0.2-6.7V146.8z M480,123.9
				c11.1,0,20-9,20-20s-9-20-20-20c-11.1,0-20,9-20,20S469,123.9,480,123.9z"/>
		</defs>
		<clipPath id="SVGID_2_">
			<use xlink:href="#SVGID_1_"  style="overflow:visible;"/>
		</clipPath>
		<linearGradient id="SVGID_3_" gradientUnits="userSpaceOnUse" x1="-146.4941" y1="80.8527" x2="637.3216" y2="446.352">
			<stop  offset="1.014840e-02" style="stop-color:#8A4793"/>
			<stop  offset="0.45" style="stop-color:#257EC0"/>
			<stop  offset="1" style="stop-color:#40AC5C"/>
		</linearGradient>
		<rect x="-10.3" y="66.2" class="st0" width="580.4" height="427"/>
	</g>
</g>
</svg>
